<svg xmlns="http://www.w3.org/2000/svg" width="60" height="60" viewBox="0 0 60 60">
    <defs>
        <style>
            .cls-2{fill:#7900ab}
        </style>
    </defs>
    <g id="ico_chart_main" transform="translate(-338.963 -311.625)">
        <circle id="타원_7" cx="30" cy="30" r="30" fill="none" transform="translate(338.963 311.625)"/>
        <g id="그룹_127" transform="translate(356.418 338.448)">
            <path id="패스_567" d="M355.353 329.306h-.036a1.207 1.207 0 0 0-.741.279l-3.624 3.471a1.2 1.2 0 0 0-.44.929v12.638a1.2 1.2 0 0 0 1.2 1.205h3.615a1.2 1.2 0 0 0 1.2-1.2l.017-16.027v-.088a1.2 1.2 0 0 0-1.191-1.207z" class="cls-2" transform="translate(-350.511 -329.306)"/>
        </g>
        <g id="그룹_128" transform="translate(365.625 338.326)">
            <path id="패스_568" d="M362.432 333.751l-3.717-4.113a1.2 1.2 0 0 0-.909-.414 1.179 1.179 0 0 0-.423.077 1.2 1.2 0 0 0-.781 1.131v16.236a1.2 1.2 0 0 0 1.2 1.2h3.717a1.205 1.205 0 0 0 1.205-1.205v-12.12a1.2 1.2 0 0 0-.292-.792z" class="cls-2" transform="translate(-356.602 -329.225)"/>
        </g>
        <g id="그룹_129" transform="translate(374.913 338.512)">
            <path id="패스_569" d="M368.269 329.457a1.2 1.2 0 0 0-1.288.183l-3.815 3.947a1.208 1.208 0 0 0-.418.911v12.1a1.206 1.206 0 0 0 1.205 1.205h3.815a1.205 1.205 0 0 0 1.205-1.205v-16.045a1.2 1.2 0 0 0-.704-1.096z" class="cls-2" transform="translate(-362.747 -329.348)"/>
        </g>
        <g id="그룹_130" transform="translate(354.309 327.579)">
            <path id="패스_570" d="M368.179 334.495h-.041a1.517 1.517 0 0 1-1.094-.511l-7.174-8.123-8.177 7.685a1.516 1.516 0 0 1-2.077-2.209l9.315-8.756a1.543 1.543 0 0 1 1.11-.411 1.518 1.518 0 0 1 1.066.511l7.135 8.078 8.087-8.2a1.517 1.517 0 1 1 2.16 2.13l-9.229 9.357a1.521 1.521 0 0 1-1.081.449z" class="cls-2" transform="translate(-349.138 -322.104)"/>
        </g>
        <g id="그룹_131" transform="translate(376.997 326.577)">
            <path id="패스_571" d="M370.876 329.7a1.516 1.516 0 0 1-1.516-1.516v-3.714h-3.717a1.516 1.516 0 1 1 0-3.032h5.233a1.516 1.516 0 0 1 1.516 1.516v5.233a1.516 1.516 0 0 1-1.516 1.513z" class="cls-2" transform="translate(-364.128 -321.438)"/>
        </g>
    </g>
</svg>
