<svg xmlns="http://www.w3.org/2000/svg" width="60" height="60" viewBox="0 0 60 60">
    <defs>
        <style>
            .cls-2{fill:#7900ab}
        </style>
    </defs>
    <g id="ico_financial_main" transform="translate(-428.072 -311.41)">
        <circle id="타원_7" cx="30" cy="30" r="30" fill="none" transform="translate(428.072 311.41)"/>
        <g id="그룹_143" transform="translate(444.289 325.513)">
            <g id="패스_558" transform="translate(1.81)">
                <path id="패스_575" d="M464.717 352.627h-3.135a1.51 1.51 0 1 1 0-3.019h1.626v-25.773h-20.1v2.346a1.51 1.51 0 0 1-3.019 0v-3.856a1.51 1.51 0 0 1 1.51-1.509h23.115a1.51 1.51 0 0 1 1.51 1.509v28.792a1.511 1.511 0 0 1-1.507 1.51z" class="cls-2" transform="translate(-440.092 -320.816)"/>
            </g>
            <g id="그룹_142" transform="translate(0 8.181)">
                <g id="그룹_137">
                    <path id="패스_576" d="M448.961 338.755c-5.65 0-10.076-2.742-10.076-6.242s4.426-6.242 10.076-6.242 10.074 2.742 10.074 6.242-4.425 6.242-10.074 6.242zm0-9.465c-4.039 0-7.056 1.7-7.056 3.223s3.018 3.223 7.056 3.223 7.057-1.7 7.057-3.223-3.018-3.223-7.057-3.223z" class="cls-2" transform="translate(-438.885 -326.271)"/>
                </g>
                <g id="그룹_138" transform="translate(0 5.657)">
                    <path id="패스_577" d="M448.961 341.476c-5.65 0-10.076-2.742-10.076-6.242v-3.682a1.51 1.51 0 0 1 3.019 0v3.682c0 1.522 3.018 3.223 7.056 3.223s7.057-1.7 7.057-3.223v-3.2a1.509 1.509 0 1 1 3.018 0v3.2c0 3.5-4.425 6.242-10.074 6.242z" class="cls-2" transform="translate(-438.885 -330.043)"/>
                </g>
                <g id="그룹_139" transform="translate(0 10.029)">
                    <path id="패스_578" d="M448.961 344.392c-5.65 0-10.076-2.743-10.076-6.244v-3.682a1.51 1.51 0 0 1 3.019 0v3.682c0 1.522 3.018 3.225 7.056 3.225s7.057-1.7 7.057-3.225v-3.2a1.509 1.509 0 1 1 3.018 0v3.2c0 3.501-4.425 6.244-10.074 6.244z" class="cls-2" transform="translate(-438.885 -332.958)"/>
                </g>
                <g id="그룹_140" transform="translate(0 14.071)">
                    <path id="패스_579" d="M448.961 347.087c-5.65 0-10.076-2.743-10.076-6.244v-3.681a1.51 1.51 0 1 1 3.019 0v3.681c0 1.522 3.018 3.225 7.056 3.225s7.057-1.7 7.057-3.225v-3.2a1.509 1.509 0 1 1 3.018 0v3.2c0 3.501-4.425 6.244-10.074 6.244z" class="cls-2" transform="translate(-438.885 -335.653)"/>
                </g>
                <g id="그룹_141" transform="translate(5.441 10.221)"/>
            </g>
        </g>
    </g>
</svg>
