<svg xmlns="http://www.w3.org/2000/svg" width="60" height="60" viewBox="0 0 60 60">
    <defs>
        <style>
            .cls-2{fill:#7900ab}
        </style>
    </defs>
    <g id="ico_realestate_main" transform="translate(-383.517 -311.419)">
        <circle id="타원_7" cx="30" cy="30" r="30" fill="none" transform="translate(383.517 311.419)"/>
        <g id="그룹_135" transform="translate(396.756 323.492)">
            <g id="그룹_133">
                <path id="패스_572" d="M393.857 337.728a1.51 1.51 0 0 1-1.066-2.577l15.236-15.236a1.51 1.51 0 0 1 1.068-.442 1.506 1.506 0 0 1 1.066.442l15.239 15.236a1.509 1.509 0 0 1-2.133 2.135l-14.169-14.17-14.171 14.17a1.509 1.509 0 0 1-1.07.442z" class="cls-2" transform="translate(-392.348 -319.472)"/>
            </g>
            <g id="패스_558" transform="translate(3.181 18.311)">
                <path id="패스_573" d="M420.09 347.188h-24.111a1.51 1.51 0 0 1-1.51-1.51v-12.484a1.509 1.509 0 0 1 3.018 0v10.976h21.094v-10.976a1.509 1.509 0 0 1 3.018 0v12.484a1.509 1.509 0 0 1-1.509 1.51z" class="cls-2" transform="translate(-394.469 -331.686)"/>
            </g>
            <g id="그룹_134" transform="translate(12.117 15.19)">
                <path id="패스_574" d="M408.179 338.865h-6.241a1.509 1.509 0 0 1-1.508-1.51v-6.243a1.507 1.507 0 0 1 1.508-1.508h6.241a1.509 1.509 0 0 1 1.51 1.508v6.243a1.51 1.51 0 0 1-1.51 1.51zm-4.733-3.018h3.225v-3.227h-3.225z" class="cls-2" transform="translate(-400.43 -329.604)"/>
            </g>
        </g>
    </g>
</svg>
